<svg width="60" height="46" viewBox="0 0 60 46" fill="none" xmlns="http://www.w3.org/2000/svg">
<path d="M57 0.5H3C2.40326 0.5 1.83097 0.737053 1.40901 1.15901C0.987053 1.58097 0.75 2.15326 0.75 2.75V41C0.75 42.1935 1.22411 43.3381 2.06802 44.182C2.91193 45.0259 4.05653 45.5 5.25 45.5H54.75C55.9435 45.5 57.0881 45.0259 57.932 44.182C58.7759 43.3381 59.25 42.1935 59.25 41V2.75C59.25 2.15326 59.0129 1.58097 58.591 1.15901C58.169 0.737053 57.5967 0.5 57 0.5ZM30 24.4484L8.78531 5H51.2147L30 24.4484ZM21.7622 23L5.25 38.1341V7.86594L21.7622 23ZM25.0922 26.0516L28.4672 29.1594C28.8823 29.5404 29.4253 29.7519 29.9887 29.7519C30.5522 29.7519 31.0952 29.5404 31.5103 29.1594L34.8853 26.0516L51.1978 41H8.78531L25.0922 26.0516ZM38.2378 23L54.75 7.86313V38.1369L38.2378 23Z" fill="#EB3678"/>
</svg>
