<svg width="46" height="54" viewBox="0 0 46 54" fill="none" xmlns="http://www.w3.org/2000/svg">
<path d="M41.5625 0.187521H21.7909C21.249 0.18579 20.7121 0.291793 20.2115 0.499369C19.711 0.706945 19.2566 1.01195 18.875 1.39666L16.2092 4.05471L13.5409 1.39666C12.7673 0.623659 11.7185 0.189433 10.625 0.189433C9.53144 0.189433 8.48264 0.623659 7.70913 1.39666L1.52163 7.58416C0.748628 8.35767 0.314402 9.40647 0.314402 10.5C0.314402 11.5936 0.748628 12.6424 1.52163 13.4159L4.17968 16.0842L1.52163 18.75C1.13692 19.1317 0.831914 19.586 0.624338 20.0866C0.416762 20.5871 0.310759 21.124 0.31249 21.6659V49.6875C0.31249 50.7815 0.747087 51.8307 1.52067 52.6043C2.29426 53.3779 3.34347 53.8125 4.43749 53.8125H41.5625C42.6565 53.8125 43.7057 53.3779 44.4793 52.6043C45.2529 51.8307 45.6875 50.7815 45.6875 49.6875V4.31252C45.6875 3.2185 45.2529 2.16929 44.4793 1.39571C43.7057 0.622118 42.6565 0.187521 41.5625 0.187521ZM4.43749 10.5L10.625 4.31252L13.2908 6.9783L7.10327 13.1658L4.43749 10.5ZM41.5625 49.6875H4.43749V21.6659L8.56249 17.5409L21.7909 4.31252H41.5625V49.6875ZM23 10.5C23 9.95301 23.2173 9.42841 23.6041 9.04161C23.9909 8.65482 24.5155 8.43752 25.0625 8.43752H35.375C35.922 8.43752 36.4466 8.65482 36.8334 9.04161C37.2202 9.42841 37.4375 9.95301 37.4375 10.5C37.4375 11.047 37.2202 11.5716 36.8334 11.9584C36.4466 12.3452 35.922 12.5625 35.375 12.5625H25.0625C24.5155 12.5625 23.9909 12.3452 23.6041 11.9584C23.2173 11.5716 23 11.047 23 10.5ZM36.6125 26.5875L26.4366 34.2188L36.6125 41.85C36.8292 42.0125 37.0117 42.2161 37.1497 42.4492C37.2877 42.6823 37.3785 42.9402 37.4168 43.2083C37.4551 43.4765 37.4402 43.7495 37.373 44.0119C37.3057 44.2743 37.1875 44.5208 37.025 44.7375C36.8625 44.9542 36.6589 45.1367 36.4258 45.2747C36.1928 45.4127 35.9348 45.5035 35.6667 45.5418C35.3985 45.5801 35.1255 45.5652 34.8631 45.498C34.6007 45.4308 34.3542 45.3125 34.1375 45.15L23 36.7969L11.8625 45.15C11.4249 45.4782 10.8748 45.6192 10.3333 45.5418C9.7918 45.4644 9.3032 45.1751 8.97499 44.7375C8.64679 44.2999 8.50586 43.7498 8.58322 43.2083C8.66058 42.6668 8.94988 42.1782 9.38749 41.85L19.5634 34.2188L9.38749 26.5875C8.94988 26.2593 8.66058 25.7707 8.58322 25.2292C8.50586 24.6877 8.64679 24.1376 8.97499 23.7C9.3032 23.2624 9.7918 22.9731 10.3333 22.8958C10.8748 22.8184 11.4249 22.9593 11.8625 23.2875L23 31.6406L34.1375 23.2875C34.5751 22.9593 35.1252 22.8184 35.6667 22.8958C36.2082 22.9731 36.6968 23.2624 37.025 23.7C37.3532 24.1376 37.4941 24.6877 37.4168 25.2292C37.3394 25.7707 37.0501 26.2593 36.6125 26.5875Z" fill="#FB773C"/>
</svg>
