<svg width="46" height="46" viewBox="0 0 46 46" fill="none" xmlns="http://www.w3.org/2000/svg">
<path d="M43.9404 10.9637C44.4562 9.29987 44.6216 7.54716 44.4263 5.81614C44.231 4.08513 43.6791 2.41336 42.8055 0.906251C42.6574 0.649663 42.4443 0.436601 42.1877 0.288488C41.9311 0.140376 41.64 0.0624344 41.3438 0.0625009C39.3782 0.0583867 37.4389 0.514042 35.6809 1.39306C33.9229 2.27208 32.3948 3.5501 31.2188 5.125H26.1562C24.9802 3.5501 23.4521 2.27208 21.6941 1.39306C19.9361 0.514042 17.9968 0.0583867 16.0312 0.0625009C15.735 0.0624344 15.4439 0.140376 15.1873 0.288488C14.9307 0.436601 14.7176 0.649663 14.5695 0.906251C13.6959 2.41336 13.144 4.08513 12.9487 5.81614C12.7534 7.54716 12.9188 9.29987 13.4346 10.9637C12.392 12.7835 11.8335 14.8403 11.8125 16.9375V18.625C11.8161 21.4803 12.8526 24.2378 14.7307 26.3885C16.6087 28.5391 19.2016 29.9376 22.0303 30.3257C20.8757 31.8032 20.2489 33.6248 20.25 35.5V37.1875H15.1875C13.8448 37.1875 12.5572 36.6541 11.6078 35.7047C10.6584 34.7553 10.125 33.4677 10.125 32.125C10.125 31.017 9.90676 29.9198 9.48273 28.8961C9.05871 27.8724 8.43721 26.9423 7.65371 26.1588C6.87022 25.3753 5.94008 24.7538 4.91639 24.3298C3.89271 23.9057 2.79553 23.6875 1.6875 23.6875C1.23995 23.6875 0.810725 23.8653 0.494257 24.1818C0.17779 24.4982 0 24.9274 0 25.375C0 25.8226 0.17779 26.2518 0.494257 26.5682C0.810725 26.8847 1.23995 27.0625 1.6875 27.0625C3.03016 27.0625 4.31783 27.5959 5.26723 28.5453C6.21663 29.4947 6.75 30.7823 6.75 32.125C6.75 34.3628 7.63895 36.5089 9.22129 38.0912C10.8036 39.6736 12.9497 40.5625 15.1875 40.5625H20.25V43.9375C20.25 44.3851 20.4278 44.8143 20.7443 45.1307C21.0607 45.4472 21.4899 45.625 21.9375 45.625C22.3851 45.625 22.8143 45.4472 23.1307 45.1307C23.4472 44.8143 23.625 44.3851 23.625 43.9375V35.5C23.625 34.1573 24.1584 32.8697 25.1078 31.9203C26.0572 30.9709 27.3448 30.4375 28.6875 30.4375C30.0302 30.4375 31.3178 30.9709 32.2672 31.9203C33.2166 32.8697 33.75 34.1573 33.75 35.5V43.9375C33.75 44.3851 33.9278 44.8143 34.2443 45.1307C34.5607 45.4472 34.9899 45.625 35.4375 45.625C35.8851 45.625 36.3143 45.4472 36.6307 45.1307C36.9472 44.8143 37.125 44.3851 37.125 43.9375V35.5C37.1261 33.6248 36.4993 31.8032 35.3447 30.3257C38.1734 29.9376 40.7663 28.5391 42.6443 26.3885C44.5224 24.2378 45.5589 21.4803 45.5625 18.625V16.9375C45.5415 14.8403 44.983 12.7835 43.9404 10.9637ZM42.1875 18.625C42.1875 20.8628 41.2986 23.0089 39.7162 24.5912C38.1339 26.1736 35.9878 27.0625 33.75 27.0625H23.625C21.3872 27.0625 19.2411 26.1736 17.6588 24.5912C16.0764 23.0089 15.1875 20.8628 15.1875 18.625V16.9375C15.2082 15.2501 15.7134 13.6041 16.643 12.1956C16.8163 11.9672 16.9285 11.6984 16.9691 11.4146C17.0097 11.1308 16.9773 10.8413 16.875 10.5735C16.4355 9.43993 16.2239 8.23075 16.2525 7.01527C16.2811 5.79979 16.5493 4.6019 17.0416 3.49024C18.4227 3.6388 19.7526 4.09629 20.9327 4.82878C22.1129 5.56128 23.1131 6.54999 23.8591 7.72164C24.0112 7.95938 24.2204 8.15519 24.4677 8.29117C24.7149 8.42715 24.9923 8.49895 25.2745 8.5H32.0984C32.3816 8.50001 32.6603 8.42872 32.9088 8.29269C33.1572 8.15666 33.3675 7.96028 33.5201 7.72164C34.266 6.54989 35.2662 5.56109 36.4464 4.82859C37.6265 4.09608 38.9565 3.63865 40.3376 3.49024C40.8293 4.60217 41.0967 5.80021 41.1246 7.01569C41.1525 8.23117 40.9402 9.44021 40.5 10.5735C40.398 10.8388 40.3639 11.1253 40.4007 11.4071C40.4376 11.6889 40.5442 11.9571 40.7109 12.1872C41.6497 13.5957 42.1624 15.245 42.1875 16.9375V18.625Z" fill="#EB3678"/>
</svg>
