<svg width="47" height="45" viewBox="0 0 47 45" fill="none" xmlns="http://www.w3.org/2000/svg">
<path d="M39.5312 28.8437C37.9568 28.8429 36.4269 29.3662 35.1828 30.3311L30.0372 26.3233C30.4256 25.4327 30.6258 24.4715 30.625 23.5C30.625 23.3352 30.625 23.1704 30.6072 23.0079L33.5529 22.026C34.4849 23.4633 35.9035 24.5168 37.5489 24.9934C39.1943 25.47 40.9563 25.3379 42.5122 24.6212C44.0681 23.9045 45.3137 22.6512 46.0208 21.091C46.728 19.5307 46.8493 17.7679 46.3626 16.1255C45.876 14.483 44.8138 13.0709 43.3708 12.1478C41.9278 11.2247 40.2005 10.8523 38.5053 11.099C36.8101 11.3456 35.2606 12.1948 34.1405 13.4909C33.0204 14.7869 32.4047 16.4432 32.4062 18.1562C32.4062 18.321 32.4062 18.4858 32.4241 18.6483L29.4783 19.6302C28.8326 18.6319 27.9472 17.811 26.903 17.2425C25.8588 16.6739 24.689 16.3757 23.5 16.375C23.1069 16.3758 22.7144 16.4086 22.3266 16.4729L20.8036 13.0351C22.1187 11.9844 23.0193 10.502 23.3457 8.85071C23.6722 7.19941 23.4035 5.48584 22.5873 4.01372C21.771 2.5416 20.46 1.40601 18.8864 0.808211C17.3129 0.210413 15.5785 0.189021 13.9907 0.747826C12.4029 1.30663 11.0642 2.40954 10.2119 3.86108C9.35961 5.31262 9.04873 7.01904 9.33439 8.67789C9.62005 10.3367 10.4838 11.8409 11.7725 12.9237C13.0612 14.0066 14.6917 14.5982 16.375 14.5937C16.7681 14.5929 17.1606 14.5601 17.5484 14.4958L19.0714 17.9247C17.7799 18.9468 16.8835 20.3858 16.5354 21.9957C16.1874 23.6056 16.4093 25.2864 17.1632 26.7508L11.4387 31.8362C9.99808 30.865 8.25271 30.4526 6.52974 30.6762C4.80677 30.8998 3.2245 31.7441 2.0795 33.0509C0.934511 34.3576 0.305408 36.0371 0.310115 37.7745C0.314822 39.5119 0.953016 41.188 2.10507 42.4885C3.25713 43.7891 4.84395 44.6248 6.56811 44.839C8.29227 45.0533 10.0354 44.6314 11.4707 43.6524C12.9061 42.6734 13.9351 41.2046 14.3649 39.5212C14.7947 37.8377 14.5959 36.0554 13.8055 34.5081L19.53 29.4226C20.7695 30.2572 22.2405 30.6797 23.7339 30.6301C25.2273 30.5806 26.6671 30.0614 27.8485 29.1465L32.9941 33.1543C32.6068 34.0421 32.4067 35.0002 32.4062 35.9687C32.4062 37.3779 32.8241 38.7555 33.607 39.9272C34.3899 41.0989 35.5027 42.0121 36.8046 42.5514C38.1066 43.0906 39.5392 43.2317 40.9213 42.9568C42.3034 42.6819 43.5729 42.0033 44.5694 41.0069C45.5658 40.0104 46.2444 38.7409 46.5193 37.3587C46.7943 35.9766 46.6532 34.544 46.1139 33.2421C45.5746 31.9402 44.6614 30.8274 43.4897 30.0445C42.318 29.2616 40.9404 28.8437 39.5312 28.8437ZM39.5312 14.5937C40.2358 14.5937 40.9246 14.8027 41.5105 15.1941C42.0963 15.5856 42.5529 16.142 42.8226 16.7929C43.0922 17.4439 43.1628 18.1602 43.0253 18.8512C42.8878 19.5423 42.5485 20.1771 42.0503 20.6753C41.5521 21.1735 40.9173 21.5128 40.2263 21.6503C39.5352 21.7877 38.8189 21.7172 38.1679 21.4475C37.517 21.1779 36.9606 20.7213 36.5691 20.1354C36.1777 19.5496 35.9687 18.8608 35.9687 18.1562C35.9687 17.2114 36.3441 16.3053 37.0122 15.6372C37.6803 14.9691 38.5864 14.5937 39.5312 14.5937ZM12.8125 7.46872C12.8125 6.76413 13.0214 6.07536 13.4129 5.48951C13.8043 4.90366 14.3607 4.44704 15.0117 4.1774C15.6626 3.90777 16.3789 3.83722 17.07 3.97468C17.7611 4.11214 18.3958 4.45143 18.8941 4.94966C19.3923 5.44788 19.7316 6.08266 19.869 6.77372C20.0065 7.46477 19.936 8.18107 19.6663 8.83203C19.3967 9.483 18.9401 10.0394 18.3542 10.4308C17.7684 10.8223 17.0796 11.0312 16.375 11.0312C15.4302 11.0312 14.524 10.6559 13.8559 9.98779C13.1878 9.31969 12.8125 8.41356 12.8125 7.46872ZM7.46875 41.3125C6.76415 41.3125 6.07538 41.1035 5.48953 40.7121C4.90368 40.3206 4.44706 39.7642 4.17743 39.1133C3.90779 38.4623 3.83724 37.746 3.9747 37.055C4.11216 36.3639 4.45145 35.7291 4.94968 35.2309C5.4479 34.7327 6.08268 34.3934 6.77374 34.2559C7.4648 34.1185 8.1811 34.189 8.83206 34.4587C9.48302 34.7283 10.0394 35.1849 10.4309 35.7708C10.8223 36.3566 11.0312 37.0454 11.0312 37.75C11.0312 38.6948 10.6559 39.6009 9.98781 40.269C9.31972 40.9371 8.41358 41.3125 7.46875 41.3125ZM19.9375 23.5C19.9375 22.7954 20.1464 22.1066 20.5379 21.5208C20.9293 20.9349 21.4857 20.4783 22.1367 20.2087C22.7876 19.939 23.5039 19.8685 24.195 20.0059C24.8861 20.1434 25.5208 20.4827 26.0191 20.9809C26.5173 21.4791 26.8566 22.1139 26.994 22.805C27.1315 23.496 27.061 24.2123 26.7913 24.8633C26.5217 25.5142 26.0651 26.0706 25.4792 26.4621C24.8934 26.8535 24.2046 27.0625 23.5 27.0625C22.5552 27.0625 21.649 26.6871 20.9809 26.019C20.3128 25.3509 19.9375 24.4448 19.9375 23.5ZM39.5312 39.5312C38.8267 39.5312 38.1379 39.3223 37.552 38.9308C36.9662 38.5394 36.5096 37.983 36.2399 37.332C35.9703 36.6811 35.8997 35.9648 36.0372 35.2737C36.1747 34.5827 36.514 33.9479 37.0122 33.4497C37.5104 32.9514 38.1452 32.6121 38.8362 32.4747C39.5273 32.3372 40.2436 32.4078 40.8946 32.6774C41.5455 32.947 42.1019 33.4037 42.4934 33.9895C42.8848 34.5754 43.0937 35.2641 43.0937 35.9687C43.0937 36.9136 42.7184 37.8197 42.0503 38.4878C41.3822 39.1559 40.4761 39.5312 39.5312 39.5312Z" fill="#FB773C"/>
</svg>
