<svg width="28" height="27" viewBox="0 0 28 27" fill="none" xmlns="http://www.w3.org/2000/svg">
<path d="M20.2909 15.7912L25.8872 13.3587C26.2558 13.1953 26.5665 12.9242 26.7783 12.581C26.9901 12.2379 27.0933 11.8387 27.0742 11.4359C27.0552 11.0331 26.9148 10.6454 26.6715 10.3238C26.4282 10.0022 26.0934 9.76167 25.7109 9.63374L5.70094 3.09999C5.35098 2.98783 4.97689 2.97425 4.61973 3.06075C4.26257 3.14725 3.93614 3.33049 3.67629 3.59034C3.41644 3.8502 3.2332 4.17662 3.1467 4.53378C3.0602 4.89095 3.07377 5.26504 3.18594 5.61499L9.71969 25.625C9.84298 26.0111 10.0818 26.35 10.404 26.5959C10.7261 26.8418 11.116 26.9828 11.5209 27H11.6197C12.0079 27.0013 12.388 26.8883 12.7125 26.6751C13.037 26.462 13.2916 26.1581 13.4447 25.8012L15.8772 20.205L22.0859 26.4137C22.2717 26.5995 22.4922 26.7469 22.7348 26.8474C22.9775 26.9479 23.2376 26.9997 23.5003 26.9997C23.763 26.9997 24.0231 26.9479 24.2658 26.8474C24.5085 26.7469 24.729 26.5995 24.9147 26.4137L26.4997 24.8287C26.6855 24.643 26.8328 24.4225 26.9334 24.1798C27.0339 23.9372 27.0856 23.677 27.0856 23.4144C27.0856 23.1517 27.0339 22.8916 26.9334 22.6489C26.8328 22.4062 26.6855 22.1857 26.4997 22L20.2909 15.7912ZM23.4997 25L17.2922 18.7912C17.0617 18.5604 16.7782 18.3895 16.4665 18.2934C16.1547 18.1972 15.8242 18.1788 15.5037 18.2397C15.1832 18.3006 14.8825 18.4389 14.6278 18.6427C14.373 18.8465 14.172 19.1095 14.0422 19.4087L11.6147 24.99L5.08594 4.99999L25.0697 11.5262L19.4897 13.9525C19.1904 14.0823 18.9274 14.2833 18.7236 14.5381C18.5199 14.7928 18.3815 15.0935 18.3206 15.414C18.2597 15.7345 18.2782 16.065 18.3743 16.3768C18.4704 16.6885 18.6414 16.972 18.8722 17.2025L25.0859 23.4137L23.4997 25ZM10.0859 1.99999V0.999991C10.0859 0.734774 10.1913 0.48042 10.3788 0.292884C10.5664 0.105348 10.8207 -9.27913e-06 11.0859 -9.27913e-06C11.3512 -9.27913e-06 11.6055 0.105348 11.793 0.292884C11.9806 0.48042 12.0859 0.734774 12.0859 0.999991V1.99999C12.0859 2.26521 11.9806 2.51956 11.793 2.7071C11.6055 2.89463 11.3512 2.99999 11.0859 2.99999C10.8207 2.99999 10.5664 2.89463 10.3788 2.7071C10.1913 2.51956 10.0859 2.26521 10.0859 1.99999ZM0.0859378 11C0.0859378 10.7348 0.191295 10.4804 0.378831 10.2929C0.566367 10.1053 0.820721 9.99999 1.08594 9.99999H2.08594C2.35115 9.99999 2.60551 10.1053 2.79304 10.2929C2.98058 10.4804 3.08594 10.7348 3.08594 11C3.08594 11.2652 2.98058 11.5196 2.79304 11.7071C2.60551 11.8946 2.35115 12 2.08594 12H1.08594C0.820721 12 0.566367 11.8946 0.378831 11.7071C0.191295 11.5196 0.0859378 11.2652 0.0859378 11ZM14.1922 2.55249L15.1922 0.552491C15.3109 0.315288 15.5189 0.134947 15.7706 0.0511419C16.0222 -0.0326634 16.2969 -0.0130686 16.5341 0.105616C16.7713 0.2243 16.9516 0.432352 17.0354 0.684002C17.1192 0.935653 17.0996 1.21029 16.9809 1.44749L15.9809 3.44749C15.9222 3.56494 15.8408 3.66967 15.7416 3.75569C15.6424 3.84171 15.5272 3.90734 15.4026 3.94884C15.2779 3.99034 15.1464 4.00688 15.0154 3.99754C14.8844 3.98819 14.7565 3.95313 14.6391 3.89437C14.5216 3.8356 14.4169 3.75427 14.3309 3.65503C14.2448 3.5558 14.1792 3.44058 14.1377 3.31598C14.0962 3.19137 14.0797 3.05982 14.089 2.92882C14.0984 2.79782 14.1334 2.66994 14.1922 2.55249ZM3.98094 14.5525C4.03979 14.67 4.0749 14.798 4.08426 14.9291C4.09362 15.0602 4.07704 15.1918 4.03548 15.3165C3.99392 15.4412 3.92819 15.5565 3.84204 15.6557C3.7559 15.755 3.65103 15.8363 3.53344 15.895L1.53344 16.895C1.29623 17.0137 1.0216 17.0333 0.769949 16.9495C0.518299 16.8657 0.310247 16.6853 0.191563 16.4481C0.0728784 16.2109 0.0532836 15.9363 0.137089 15.6846C0.220894 15.433 0.401235 15.2249 0.638438 15.1062L2.63844 14.1062C2.75588 14.0473 2.88378 14.0122 3.01482 14.0027C3.14586 13.9933 3.27748 14.0097 3.40216 14.0512C3.52683 14.0926 3.64212 14.1582 3.74143 14.2442C3.84074 14.3303 3.92213 14.435 3.98094 14.5525Z" fill="white"/>
</svg>
