<svg width="31" height="24" viewBox="0 0 31 24" fill="none" xmlns="http://www.w3.org/2000/svg">
<path d="M29.7244 3.585C28.7682 1.93625 26.2444 1.565 22.4119 2.5025C20.6376 1.13056 18.5141 0.283725 16.2826 0.0582112C14.0511 -0.167302 11.8011 0.237542 9.78817 1.22675C7.77525 2.21597 6.0801 3.74989 4.8953 5.65427C3.7105 7.55865 3.08355 9.75715 3.08567 12C3.08582 12.5145 3.11839 13.0284 3.18317 13.5388C-0.278083 17.125 -0.228082 19.25 0.448168 20.415C1.08567 21.52 2.41567 22 4.16567 22C5.38069 21.9749 6.58856 21.8071 7.76442 21.5C9.53893 22.8706 11.6622 23.7162 13.8931 23.9409C16.124 24.1655 18.3733 23.7601 20.3854 22.7708C22.3975 21.7815 24.092 20.2478 25.2763 18.3439C26.4607 16.44 27.0875 14.2422 27.0857 12C27.0859 11.4881 27.0538 10.9766 26.9894 10.4688C28.5519 8.84375 29.5919 7.3 29.9457 5.97875C30.1894 5.06375 30.1157 4.25875 29.7244 3.585ZM15.0857 2C17.3506 2.00233 19.5478 2.77242 21.3187 4.18454C23.0895 5.59666 24.3293 7.5674 24.8357 9.775C22.7032 11.7825 19.8169 13.8413 17.0769 15.4163C13.6332 17.3925 10.6457 18.625 8.26317 19.3C6.79576 17.9314 5.77438 16.1527 5.332 14.1955C4.88961 12.2383 5.04672 10.1933 5.78287 8.32659C6.51901 6.45992 7.80009 4.85812 9.45933 3.72972C11.1186 2.60132 13.0791 1.99859 15.0857 2ZM2.17817 19.4113C1.99567 19.0975 2.09692 18.5063 2.45567 17.7863C2.81043 17.1117 3.24205 16.4804 3.74192 15.905C4.23742 17.3406 5.00093 18.6691 5.99192 19.82C3.83567 20.1825 2.49067 19.9513 2.17817 19.4113ZM15.0857 22C13.3996 22.0017 11.7408 21.5741 10.2657 20.7575C12.9733 19.7999 15.5858 18.5922 18.0694 17.15C20.7669 15.6013 23.1544 13.9225 25.0782 12.265C25.0069 14.8689 23.9233 17.3425 22.0574 19.1603C20.1916 20.978 17.6906 21.9967 15.0857 22ZM28.0132 5.46125C27.8007 6.25 27.2394 7.1525 26.4344 8.1025C25.9402 6.66516 25.1766 5.33519 24.1844 4.18375C25.9607 3.89 27.6057 3.9125 27.9969 4.58875C28.1094 4.785 28.1157 5.07875 28.0132 5.46125Z" fill="#FB773C"/>
</svg>
