<svg width="33" height="32" viewBox="0 0 33 32" fill="none" xmlns="http://www.w3.org/2000/svg">
<path d="M19.0857 11C19.8768 11 20.6502 10.7654 21.308 10.3259C21.9658 9.88635 22.4784 9.26164 22.7812 8.53074C23.0839 7.79983 23.1632 6.99556 23.0088 6.21964C22.8545 5.44372 22.4735 4.73098 21.9141 4.17157C21.3547 3.61216 20.642 3.2312 19.866 3.07686C19.0901 2.92252 18.2859 3.00173 17.5549 3.30448C16.824 3.60723 16.1993 4.11992 15.7598 4.77772C15.3203 5.43552 15.0857 6.20888 15.0857 7C15.0857 8.06087 15.5071 9.07828 16.2573 9.82843C17.0074 10.5786 18.0248 11 19.0857 11ZM19.0857 5C19.4812 5 19.8679 5.1173 20.1968 5.33706C20.5257 5.55683 20.7821 5.86918 20.9334 6.23463C21.0848 6.60009 21.1244 7.00222 21.0473 7.39018C20.9701 7.77814 20.7796 8.13451 20.4999 8.41422C20.2202 8.69392 19.8638 8.8844 19.4759 8.96157C19.0879 9.03874 18.6858 8.99914 18.3203 8.84776C17.9549 8.69639 17.6425 8.44004 17.4227 8.11114C17.203 7.78224 17.0857 7.39556 17.0857 7C17.0857 6.46957 17.2964 5.96086 17.6715 5.58579C18.0465 5.21072 18.5552 5 19.0857 5ZM27.4994 17.585C27.4232 17.62 26.5632 17.995 25.0407 17.995C23.3094 17.995 20.7219 17.51 17.4544 15.495C16.9571 16.9068 16.3114 18.2619 15.5282 19.5375C16.935 19.9706 18.2583 20.6388 19.4419 21.5138C21.8257 23.3313 23.0857 25.9188 23.0857 29C23.0857 29.2652 22.9803 29.5196 22.7928 29.7071C22.6053 29.8946 22.3509 30 22.0857 30C21.8205 30 21.5661 29.8946 21.3786 29.7071C21.191 29.5196 21.0857 29.2652 21.0857 29C21.0857 23.7875 16.7494 21.9113 14.3182 21.2688C14.2494 21.3563 14.1782 21.445 14.1069 21.5313C11.6519 24.5063 8.57568 26.0538 5.15318 26.0538C4.76335 26.0556 4.37369 26.0376 3.98568 26C3.72046 25.9735 3.47664 25.8427 3.30786 25.6364C3.13908 25.4301 3.05916 25.1652 3.08568 24.9C3.1122 24.6348 3.24299 24.391 3.44928 24.2222C3.65557 24.0534 3.92046 23.9735 4.18568 24C7.42568 24.3225 10.2444 23.0638 12.5607 20.25C14.1219 18.3575 15.1857 16.0488 15.7169 14.375C10.8519 11.5438 7.74443 13.9538 7.71068 13.98C7.60881 14.067 7.49051 14.1326 7.36279 14.173C7.23508 14.2134 7.10055 14.2277 6.96719 14.2151C6.83383 14.2025 6.70437 14.1632 6.58648 14.0996C6.4686 14.036 6.36469 13.9494 6.28093 13.8448C6.19717 13.7403 6.13527 13.62 6.09889 13.4911C6.06252 13.3622 6.05241 13.2273 6.06918 13.0944C6.08594 12.9615 6.12924 12.8333 6.19649 12.7175C6.26374 12.6016 6.35358 12.5005 6.46068 12.42C6.64818 12.27 11.1132 8.795 17.6494 13.2413C23.3332 17.105 26.6407 15.78 26.6719 15.765C26.7917 15.7084 26.9216 15.6762 27.0539 15.6703C27.1863 15.6643 27.3185 15.6847 27.4429 15.7303C27.5673 15.7758 27.6815 15.8457 27.7786 15.9357C27.8758 16.0258 27.9541 16.1342 28.009 16.2548C28.064 16.3754 28.0944 16.5057 28.0985 16.6381C28.1026 16.7705 28.0804 16.9025 28.0331 17.0262C27.9858 17.15 27.9143 17.2631 27.823 17.359C27.7316 17.455 27.622 17.5318 27.5007 17.585H27.4994Z" fill="#FB773C"/>
</svg>
