<svg width="29" height="28" viewBox="0 0 29 28" fill="none" xmlns="http://www.w3.org/2000/svg">
<path d="M28.0069 6.76245C27.9074 6.45217 27.7181 6.17842 27.4628 5.97591C27.2076 5.77339 26.8979 5.65125 26.5731 5.62496L21.9206 5.2312L20.1056 0.999955C19.9775 0.703322 19.7654 0.450674 19.4954 0.273177C19.2254 0.0956806 18.9094 0.00109863 18.5863 0.00109863C18.2632 0.00109863 17.9471 0.0956806 17.6771 0.273177C17.4071 0.450674 17.195 0.703322 17.0669 0.999955L15.2519 5.23246L10.5981 5.62496C10.275 5.65091 9.96677 5.77199 9.71235 5.97291C9.45794 6.17383 9.26872 6.44559 9.16857 6.75392C9.06843 7.06225 9.06183 7.39334 9.14963 7.70541C9.23742 8.01748 9.41567 8.29657 9.66189 8.50745L13.1819 11.5075L12.1281 15.9737C12.0541 16.2868 12.0738 16.6147 12.185 16.9166C12.2961 17.2185 12.4937 17.4809 12.7531 17.6712C13.0156 17.8639 13.3291 17.975 13.6543 17.9906C13.9796 18.0062 14.3022 17.9255 14.5819 17.7587L18.5819 15.3837L22.5819 17.7587C22.8616 17.9255 23.1842 18.0062 23.5095 17.9906C23.8347 17.975 24.1482 17.8639 24.4106 17.6712C24.6702 17.481 24.8679 17.2186 24.979 16.9167C25.0902 16.6148 25.1099 16.2868 25.0356 15.9737L23.9819 11.5075L27.5006 8.50745C27.7483 8.29938 27.9286 8.02247 28.0187 7.71182C28.1088 7.40117 28.1047 7.07076 28.0069 6.76245ZM22.5244 10.1375C22.2941 10.3326 22.1224 10.5878 22.0284 10.8747C21.9343 11.1615 21.9217 11.4688 21.9919 11.7625L22.9056 15.6375L19.4331 13.5737C19.1769 13.4209 18.884 13.3402 18.5856 13.3402C18.2873 13.3402 17.9944 13.4209 17.7381 13.5737L14.2656 15.625L15.1794 11.75C15.2506 11.4565 15.2386 11.149 15.1447 10.8619C15.0509 10.5749 14.8789 10.3197 14.6481 10.125L11.6156 7.54745L15.6269 7.20746C15.9246 7.18248 16.2099 7.07689 16.4521 6.90204C16.6944 6.72718 16.8844 6.48966 17.0019 6.21496L18.5856 2.52996L20.1656 6.21496C20.2833 6.4895 20.4734 6.72688 20.7156 6.9017C20.9578 7.07652 21.243 7.18221 21.5406 7.20746L25.5519 7.54745L22.5244 10.1375ZM8.79314 13.7075L1.79314 20.7075C1.6055 20.8951 1.351 21.0005 1.08564 21.0005C0.820275 21.0005 0.56578 20.8951 0.378139 20.7075C0.190498 20.5198 0.085083 20.2653 0.085083 20C0.085083 19.7346 0.190498 19.4801 0.378139 19.2925L7.37814 12.2925C7.56578 12.1048 7.82027 11.9994 8.08564 11.9994C8.351 11.9994 8.6055 12.1048 8.79314 12.2925C8.98078 12.4801 9.08619 12.7346 9.08619 13C9.08619 13.2653 8.98078 13.5198 8.79314 13.7075ZM10.7931 20.7075L3.79314 27.7075C3.70023 27.8004 3.58993 27.8741 3.46854 27.9243C3.34714 27.9746 3.21703 28.0005 3.08564 28.0005C2.95424 28.0005 2.82414 27.9746 2.70274 27.9243C2.58135 27.8741 2.47105 27.8004 2.37814 27.7075C2.28523 27.6145 2.21153 27.5042 2.16125 27.3829C2.11096 27.2615 2.08508 27.1313 2.08508 27C2.08508 26.8686 2.11096 26.7385 2.16125 26.6171C2.21153 26.4957 2.28523 26.3854 2.37814 26.2925L9.37814 19.2925C9.56578 19.1048 9.82028 18.9994 10.0856 18.9994C10.351 18.9994 10.6055 19.1048 10.7931 19.2925C10.9808 19.4801 11.0862 19.7346 11.0862 20C11.0862 20.2653 10.9808 20.5198 10.7931 20.7075ZM19.7931 19.2925C19.8861 19.3853 19.9599 19.4956 20.0102 19.617C20.0605 19.7384 20.0864 19.8685 20.0864 20C20.0864 20.1314 20.0605 20.2615 20.0102 20.3829C19.9599 20.5043 19.8861 20.6146 19.7931 20.7075L12.7931 27.7075C12.7002 27.8004 12.5899 27.8741 12.4685 27.9243C12.3471 27.9746 12.217 28.0005 12.0856 28.0005C11.9542 28.0005 11.8241 27.9746 11.7027 27.9243C11.5813 27.8741 11.471 27.8004 11.3781 27.7075C11.2852 27.6145 11.2115 27.5042 11.1612 27.3829C11.111 27.2615 11.0851 27.1313 11.0851 27C11.0851 26.8686 11.111 26.7385 11.1612 26.6171C11.2115 26.4957 11.2852 26.3854 11.3781 26.2925L18.3781 19.2925C18.471 19.1995 18.5813 19.1257 18.7027 19.0754C18.8241 19.0251 18.9542 18.9992 19.0856 18.9992C19.2171 18.9992 19.3472 19.0251 19.4686 19.0754C19.59 19.1257 19.7003 19.1995 19.7931 19.2925Z" fill="#FB773C"/>
</svg>
