<svg width="49" height="49" viewBox="0 0 49 49" fill="none" xmlns="http://www.w3.org/2000/svg">
<path d="M19.7265 37.306C19.6335 37.6753 17.3103 46.3749 4.53126 46.3749C4.02569 46.3749 3.54082 46.1741 3.18333 45.8166C2.82584 45.4591 2.62501 44.9743 2.62501 44.4687C2.62501 31.6897 11.3247 29.3664 11.694 29.2735C12.1847 29.1509 12.704 29.2282 13.1377 29.4885C13.5714 29.7488 13.8839 30.1708 14.0065 30.6615C14.1291 31.1522 14.0518 31.6715 13.7915 32.1052C13.5312 32.5389 13.1092 32.8514 12.6185 32.974C12.4041 33.0336 7.27626 34.5324 6.52805 42.4719C14.4676 41.7237 15.9688 36.6054 16.0307 36.3671C16.1571 35.877 16.473 35.4572 16.9089 35.2001C17.3448 34.9429 17.8651 34.8694 18.3551 34.9958C18.8452 35.1222 19.265 35.4381 19.5222 35.874C19.7794 36.3099 19.8528 36.8302 19.7265 37.3203V37.306ZM41.8866 21.2458L40.75 22.3824V36.2813C40.7528 36.7839 40.6557 37.2821 40.4643 37.7468C40.2728 38.2115 39.9909 38.6335 39.6349 38.9882L31.457 47.1613C31.1044 47.5164 30.6849 47.7983 30.2227 47.9905C29.7606 48.1827 29.265 48.2815 28.7645 48.2812C28.3514 48.2811 27.941 48.2143 27.5492 48.0834C26.8765 47.8609 26.2795 47.4547 25.8256 46.9107C25.3716 46.3666 25.079 45.7065 24.9806 45.0048L23.701 35.8334L13.1666 25.299L3.99989 24.0194C3.2973 23.9209 2.63614 23.6282 2.09079 23.1744C1.54544 22.7206 1.13754 22.1236 0.912964 21.4507C0.688388 20.7777 0.656051 20.0554 0.819592 19.365C0.983132 18.6747 1.33606 18.0436 1.83868 17.5429L10.0117 9.3651C10.3665 9.00907 10.7885 8.72713 11.2532 8.53568C11.7179 8.34424 12.216 8.24711 12.7186 8.24994H26.6175L27.7541 7.11334C34.1115 0.758375 41.7722 0.484352 44.7698 0.663063C45.6993 0.719547 46.5759 1.11425 47.2344 1.7727C47.8928 2.43115 48.2875 3.30781 48.344 4.23728C48.518 7.22771 48.244 14.8885 41.889 21.2458H41.8866ZM4.53126 20.245L13.3834 21.4793L22.805 12.0624H12.7186L4.53126 20.245ZM16.7598 23.4999L25.5 32.2401L39.1893 18.5508C41.0341 16.7184 42.4653 14.5124 43.3868 12.0809C44.3082 9.64948 44.6986 7.04895 44.5315 4.45412C41.9381 4.29329 39.3401 4.68771 36.9112 5.61102C34.4824 6.53433 32.2785 7.96528 30.4467 9.8083L16.7598 23.4999ZM36.9375 26.1949L27.5182 35.6142L28.7573 44.4687L36.9375 36.2813V26.1949Z" fill="#FB773C"/>
</svg>
