<svg width="48" height="47" viewBox="0 0 33 32" fill="none" xmlns="http://www.w3.org/2000/svg">
<path d="M13.0572 23.2425C13.0084 23.4362 11.7897 28 5.08592 28C4.82071 28 4.56635 27.8946 4.37882 27.7071C4.19128 27.5196 4.08592 27.2652 4.08592 27C4.08592 20.2962 8.64967 19.0775 8.84342 19.0287C9.10085 18.9644 9.37328 19.005 9.60079 19.1416C9.82829 19.2781 9.99223 19.4994 10.0565 19.7569C10.1209 20.0143 10.0803 20.2867 9.94373 20.5142C9.80718 20.7417 9.58585 20.9057 9.32842 20.97C9.21592 21.0012 6.52592 21.7875 6.13342 25.9525C10.2984 25.56 11.0859 22.875 11.1184 22.75C11.1847 22.4929 11.3504 22.2727 11.5791 22.1378C11.8078 22.0028 12.0807 21.9643 12.3378 22.0306C12.5949 22.0969 12.8151 22.2626 12.95 22.4913C13.0849 22.72 13.1235 22.9929 13.0572 23.25V23.2425ZM24.6822 14.8175L24.0859 15.4137V22.705C24.0874 22.9686 24.0365 23.23 23.936 23.4737C23.8356 23.7175 23.6877 23.9389 23.5009 24.125L19.2109 28.4125C19.0259 28.5988 18.8059 28.7467 18.5634 28.8475C18.321 28.9483 18.061 29.0002 17.7984 29C17.5817 28.9999 17.3665 28.9649 17.1609 28.8962C16.808 28.7795 16.4948 28.5664 16.2567 28.281C16.0186 27.9956 15.865 27.6493 15.8134 27.2812L15.1422 22.47L9.61592 16.9437L4.80717 16.2725C4.4386 16.2208 4.09177 16.0673 3.80568 15.8292C3.5196 15.5912 3.30561 15.278 3.1878 14.925C3.06999 14.5719 3.05303 14.193 3.13882 13.8308C3.22461 13.4687 3.40976 13.1377 3.67342 12.875L7.96092 8.58499C8.14702 8.39822 8.3684 8.25032 8.61218 8.14989C8.85596 8.04946 9.11727 7.9985 9.38092 7.99999H16.6722L17.2684 7.40374C20.6034 4.06999 24.6222 3.92624 26.1947 4.01999C26.6823 4.04962 27.1422 4.25668 27.4876 4.60209C27.833 4.94751 28.04 5.4074 28.0697 5.89499C28.1609 7.46374 28.0172 11.4825 24.6834 14.8175H24.6822ZM5.08592 14.2925L9.72967 14.94L14.6722 9.99999H9.38092L5.08592 14.2925ZM11.5009 16L16.0859 20.585L23.2672 13.4037C24.235 12.4425 24.9858 11.2852 25.4692 10.0097C25.9525 8.73417 26.1573 7.36996 26.0697 6.00874C24.7092 5.92437 23.3463 6.13128 22.0721 6.61564C20.798 7.1 19.6418 7.85066 18.6809 8.81749L11.5009 16ZM22.0859 17.4137L17.1447 22.355L17.7947 27L22.0859 22.705V17.4137Z" fill="white"/>
</svg>
