<svg width="53" height="53" viewBox="0 0 53 53" fill="none" xmlns="http://www.w3.org/2000/svg">
<path d="M26.5 0C21.2588 0 16.1353 1.5542 11.7774 4.46605C7.4195 7.37791 4.02293 11.5166 2.0172 16.3589C0.011482 21.2011 -0.513306 26.5294 0.509202 31.6699C1.53171 36.8104 4.05559 41.5322 7.76168 45.2383C11.4678 48.9444 16.1896 51.4683 21.3301 52.4908C26.4706 53.5133 31.7989 52.9885 36.6411 50.9828C41.4834 48.9771 45.6221 45.5805 48.5339 41.2226C51.4458 36.8647 53 31.7412 53 26.5C52.9926 19.474 50.1982 12.738 45.2301 7.76986C40.262 2.80176 33.526 0.00741954 26.5 0ZM19.7807 36.6923H33.2193C31.851 41.3655 29.5577 45.5774 26.5 48.895C23.4423 45.5774 21.149 41.3655 19.7807 36.6923ZM18.8558 32.6154C18.1797 28.5665 18.1797 24.4335 18.8558 20.3846H34.1442C34.8203 24.4335 34.8203 28.5665 34.1442 32.6154H18.8558ZM4.07693 26.5C4.07516 24.4321 4.36073 22.3739 4.92544 20.3846H14.7253C14.1172 24.4389 14.1172 28.5611 14.7253 32.6154H4.92544C4.36073 30.6261 4.07516 28.5679 4.07693 26.5ZM33.2193 16.3077H19.7807C21.149 11.6345 23.4423 7.42255 26.5 4.10495C29.5577 7.42255 31.851 11.6345 33.2193 16.3077ZM38.2747 20.3846H48.0746C49.2059 24.383 49.2059 28.6169 48.0746 32.6154H38.2747C38.8828 28.5611 38.8828 24.4389 38.2747 20.3846ZM46.4693 16.3077H37.4414C36.4012 12.2142 34.6541 8.33385 32.279 4.84135C35.3134 5.65678 38.1436 7.09824 40.5874 9.07301C43.0313 11.0478 45.0349 13.5122 46.4693 16.3077ZM20.721 4.84135C18.3459 8.33385 16.5989 12.2142 15.5586 16.3077H6.53073C7.96511 13.5122 9.96867 11.0478 12.4126 9.07301C14.8565 7.09824 17.6866 5.65678 20.721 4.84135ZM6.53073 36.6923H15.5586C16.5989 40.7858 18.3459 44.6661 20.721 48.1586C17.6866 47.3432 14.8565 45.9018 12.4126 43.927C9.96867 41.9522 7.96511 39.4878 6.53073 36.6923ZM32.279 48.1586C34.6541 44.6661 36.4012 40.7858 37.4414 36.6923H46.4693C45.0349 39.4878 43.0313 41.9522 40.5874 43.927C38.1436 45.9018 35.3134 47.3432 32.279 48.1586Z" fill="#FB773C"/>
</svg>
